<?xml version="1.0" encoding="UTF-8"?>
<svg version="1.1" xmlns="http://www.w3.org/2000/svg" width="346" height="329">
<path d="M0 0 C114.18 0 228.36 0 346 0 C346 108.57 346 217.14 346 329 C231.82 329 117.64 329 0 329 C0 220.43 0 111.86 0 0 Z " fill="#010101" transform="translate(0,0)"/>
<path d="M0 0 C15.37699866 13.29159348 24.10395459 32.59004731 27.39575195 52.421875 C27.88439639 55.34717286 28.44477396 58.11139183 29.390625 60.92578125 C30.83071067 65.27839974 31.63515984 69.70531816 32.49609375 74.203125 C32.84032019 75.97672294 33.18534289 77.75016657 33.53125 79.5234375 C33.68086182 80.30219238 33.83047363 81.08094727 33.98461914 81.88330078 C34.20686157 82.96973877 34.20686157 82.96973877 34.43359375 84.078125 C34.57458496 84.8014502 34.71557617 85.52477539 34.86083984 86.27001953 C35.30491285 88.2979534 35.30491285 88.2979534 37.5 89.5625 C38.32371094 89.98015625 39.14742187 90.3978125 39.99609375 90.828125 C40.82238281 91.25609375 41.64867187 91.6840625 42.5 92.125 C43.45712891 92.59679687 43.45712891 92.59679687 44.43359375 93.078125 C46.6432775 85.08426908 48.68235594 77.07250657 50.5559082 68.99316406 C62.67522562 17.02515358 62.67522562 17.02515358 83.43359375 3.078125 C87.96159216 0.34540721 92.10522709 -1.48690629 97.43359375 -1.921875 C98.45066406 -2.01662109 98.45066406 -2.01662109 99.48828125 -2.11328125 C107.58730202 -2.5476578 113.5576508 0.30234968 119.74609375 5.390625 C123.25604833 8.64239207 125.33195571 11.7940167 127.43359375 16.078125 C127.84609375 16.779375 128.25859375 17.480625 128.68359375 18.203125 C129.6313043 20.57240137 129.5739791 22.55118873 129.43359375 25.078125 C128.11359375 25.078125 126.79359375 25.078125 125.43359375 25.078125 C124.23046875 23.5390625 124.23046875 23.5390625 123.18359375 21.453125 C120.34754138 16.69532968 117.67154076 13.2184451 112.43359375 11.078125 C103.00467558 9.70286831 94.3531773 10.31172432 86.43359375 16.078125 C70.81916014 27.99184046 63.25728346 52.16477796 58.24609375 70.265625 C57.90384766 71.47154297 57.56160156 72.67746094 57.20898438 73.91992188 C53.0065179 86.36540857 53.0065179 86.36540857 52.43359375 99.078125 C53.96390985 100.82240627 55.64505776 102.33446701 57.35546875 103.90234375 C66.29796398 113.26506902 70.61360341 124.04500204 70.80859375 136.703125 C70.82277344 137.42016602 70.83695313 138.13720703 70.8515625 138.87597656 C70.80452751 143.97221772 69.81330448 147.55554679 67.43359375 152.078125 C64.07979998 155.12702843 62.42543952 156.078125 57.87109375 156.078125 C50.52663987 153.9415566 47.09612507 148.44727771 43.43359375 142.078125 C42.73545506 140.42439449 42.05965053 138.76046716 41.43359375 137.078125 C39.77776665 140.04571122 38.73012749 142.67552604 38.43359375 146.078125 C40.10394558 149.99905613 42.58952485 152.93635917 45.43359375 156.078125 C45.98917969 156.72652344 46.54476562 157.37492188 47.1171875 158.04296875 C50.18776496 161.17245418 52.78989313 162.52274801 57.18359375 162.890625 C64.29986181 162.4867877 70.50664864 158.00507011 75.43359375 153.078125 C76.75359375 153.078125 78.07359375 153.078125 79.43359375 153.078125 C78.92680998 157.1323952 77.06530566 158.60368596 73.93359375 161.078125 C66.30374167 166.87076058 60.10745721 169.89502894 50.359375 169.5234375 C43.74962234 168.51741373 39.32043004 165.19681059 34.93359375 160.328125 C32.24311549 157.4097474 30.44997371 156.56623766 26.49609375 156.140625 C25.14276411 156.08866076 23.78775008 156.05663046 22.43359375 156.078125 C22.10359375 154.428125 21.77359375 152.778125 21.43359375 151.078125 C23.08359375 150.748125 24.73359375 150.418125 26.43359375 150.078125 C26.21219727 149.5205249 25.99080078 148.9629248 25.76269531 148.38842773 C18.82832609 130.82701139 14.18547211 113.57623238 10.38671875 95.09375 C10.11069824 93.75231934 10.11069824 93.75231934 9.82910156 92.38378906 C9.43359375 90.078125 9.43359375 90.078125 9.43359375 87.078125 C5.3517766 86.91107554 2.13215601 87.28035588 -1.56640625 89.078125 C-3.21127141 91.79023987 -4.22739443 94.43433299 -5.22607422 97.43554688 C-11.52949645 116.35021232 -24.01392623 132.86087269 -36.56640625 148.078125 C-27.96110641 149.08612108 -22.78844802 146.53133287 -15.56640625 142.078125 C-14.24120122 141.39544362 -12.91080497 140.72218578 -11.56640625 140.078125 C-11.23640625 141.398125 -10.90640625 142.718125 -10.56640625 144.078125 C-11.96123112 145.01712475 -13.35731791 145.95425011 -14.75390625 146.890625 C-15.91986328 147.67373047 -15.91986328 147.67373047 -17.109375 148.47265625 C-17.92019531 149.00246094 -18.73101562 149.53226563 -19.56640625 150.078125 C-20.324375 150.64015625 -21.08234375 151.2021875 -21.86328125 151.78125 C-24.88542551 153.23118048 -27.12976237 153.21594407 -30.44067383 153.0859375 C-35.83347148 152.91265559 -40.64865112 152.8789607 -44.92578125 156.48828125 C-47.48996367 159.02174495 -49.80320677 161.77310532 -52.13818359 164.51660156 C-61.65481037 174.92144684 -75.46030771 181.59822223 -88.56640625 186.078125 C-89.96052734 186.56152344 -89.96052734 186.56152344 -91.3828125 187.0546875 C-99.29794753 189.5202463 -108.60852247 190.91808079 -116.56640625 187.890625 C-122.04976122 184.57776471 -125.0621451 180.93781471 -127.56640625 175.078125 C-129.10851236 164.23197872 -126.4683575 156.93105187 -120.56640625 148.078125 C-119.24640625 148.408125 -117.92640625 148.738125 -116.56640625 149.078125 C-117.89973958 153.078125 -119.23307292 157.078125 -120.56640625 161.078125 C-121.29584668 167.8105014 -120.70776381 173.54353296 -116.56640625 179.078125 C-114.07310663 181.58869921 -112.78134125 182.05485497 -109.2109375 182.44140625 C-107.94636719 182.42464844 -106.68179688 182.40789062 -105.37890625 182.390625 C-103.50138672 182.38482422 -103.50138672 182.38482422 -101.5859375 182.37890625 C-93.36123657 181.94189898 -86.53445539 179.50586533 -79.31640625 175.640625 C-78.49229248 175.20250488 -77.66817871 174.76438477 -76.8190918 174.31298828 C-69.19305558 170.11632863 -62.85095337 165.05958758 -56.56640625 159.078125 C-55.72980469 158.28535156 -54.89320312 157.49257812 -54.03125 156.67578125 C-50.34034965 153.22328473 -50.34034965 153.22328473 -47.56640625 149.078125 C-48.45972656 148.68367188 -48.45972656 148.68367188 -49.37109375 148.28125 C-53.82792947 145.8387137 -56.77842808 141.72571571 -58.94140625 137.203125 C-60.90572366 127.38153794 -58.96606987 119.4130775 -53.50390625 111.078125 C-43.44158807 97.50764996 -28.75298067 88.4677045 -12.56640625 84.078125 C-11.24640625 84.078125 -9.92640625 84.078125 -8.56640625 84.078125 C-0.43114811 62.30443922 -0.43114811 62.30443922 -2.0703125 40.17578125 C-2.73789967 38.82139576 -3.42485503 37.47641861 -4.12890625 36.140625 C-4.67526733 35.08512451 -4.67526733 35.08512451 -5.23266602 34.00830078 C-11.17087975 22.87043784 -19.56699432 15.31321156 -31.56640625 11.078125 C-32.88640625 11.078125 -34.20640625 11.078125 -35.56640625 11.078125 C-40.63233693 20.5492128 -40.79379268 29.71961419 -37.75390625 39.953125 C-36.72094399 43.17470078 -35.68720307 45.87919945 -33.9296875 48.7734375 C-32.56640625 51.078125 -32.56640625 51.078125 -32.56640625 54.078125 C-34.86328125 53.93359375 -34.86328125 53.93359375 -37.56640625 53.078125 C-39.33203125 50.56640625 -39.33203125 50.56640625 -40.81640625 47.390625 C-41.3165625 46.35550781 -41.81671875 45.32039063 -42.33203125 44.25390625 C-46.45625094 33.64317649 -45.78942099 21.32885808 -41.44140625 10.95703125 C-41.15265625 10.33699219 -40.86390625 9.71695313 -40.56640625 9.078125 C-58.89353529 11.05863733 -73.66100898 18.8353378 -85.56640625 33.078125 C-88.48593477 37.28055665 -91.06653828 41.61564139 -93.56640625 46.078125 C-94.05109375 46.90054688 -94.53578125 47.72296875 -95.03515625 48.5703125 C-101.99518669 61.17475787 -104.71153652 76.76603514 -102.0234375 90.94140625 C-100.72517099 95.32395231 -99.23326763 98.18984377 -95.56640625 101.078125 C-88.99330155 102.26058828 -82.1122044 101.8812005 -76.3203125 98.38671875 C-69.75348365 93.48719166 -65.19849005 87.06977439 -60.484375 80.45703125 C-59.85144531 79.67199219 -59.21851562 78.88695312 -58.56640625 78.078125 C-57.90640625 78.078125 -57.24640625 78.078125 -56.56640625 78.078125 C-55.73790697 83.46337032 -57.57457351 86.41971702 -60.59765625 90.640625 C-68.34634158 100.23423541 -77.08177689 108.74839408 -89.71484375 110.51953125 C-95.40994638 110.73326997 -99.59628923 110.81136867 -104.12890625 107.078125 C-107.55291945 103.50994282 -109.8259721 99.68769071 -111.56640625 95.078125 C-111.92347656 94.15128906 -112.28054687 93.22445312 -112.6484375 92.26953125 C-116.75891609 77.97905887 -112.13633531 60.9108176 -105.56640625 48.078125 C-93.40798648 27.2199169 -74.88016216 10.79883258 -51.65869141 3.61083984 C-46.88436773 2.39525358 -41.99423625 2.0764884 -37.08984375 1.79296875 C-32.54909576 0.87173052 -30.9802118 -0.85709998 -27.56640625 -3.921875 C-18.91631873 -7.33506234 -7.30413699 -5.46976469 0 0 Z " fill="#F0F0F0" transform="translate(169.56640625,74.921875)"/>
<path d="M0 0 C-2.24629264 8.00241754 -6.0202324 14.98025396 -10.01855469 22.20898438 C-10.87909873 23.77937022 -11.71145816 25.36513292 -12.5390625 26.953125 C-17.96239292 37.31501887 -24.87399492 46.75016596 -32 56 C-36.21853341 55.2040503 -37.55870667 53.53566621 -40 50 C-42.08028806 43.75913582 -41.71526156 36.52445256 -39.9375 30.25 C-31.2296031 15.6432052 -19.05727148 7.96865457 -4 1 C-2 0 -2 0 0 0 Z " fill="#060606" transform="translate(158,165)"/>
<path d="M0 0 C8.3857792 3.58867407 12.65283544 13.14401597 15.890625 21.16015625 C17.77630973 27.68701573 18.30484242 34.29354733 17 41 C15.55111019 43.47722172 14.11490112 44.96870404 12 47 C8.625 47.5 8.625 47.5 5 46 C2.15752207 42.94895451 0.07205204 39.6069054 -2 36 C-2.44988281 35.22527344 -2.89976562 34.45054687 -3.36328125 33.65234375 C-8.53360971 23.57819861 -3.9417921 13.22272755 -1 3 C-0.67 2.01 -0.34 1.02 0 0 Z " fill="#090909" transform="translate(219,179)"/>
<path d="M0 0 C16.58135038 8.29067519 23.19707116 27.91320091 28.91894531 44.30810547 C29.5623788 46.14482406 30.22981566 47.97308142 30.8984375 49.80078125 C39.59375 74.40149457 39.59375 74.40149457 39.59375 85.234375 C36.62375 84.574375 33.65375 83.914375 30.59375 83.234375 C30.42246582 82.35177002 30.25118164 81.46916504 30.07470703 80.55981445 C29.43376614 77.2696368 28.78842771 73.98038443 28.14013672 70.69165039 C27.86103852 69.27109553 27.58367123 67.85019941 27.30810547 66.42895508 C26.91053201 64.38008823 26.50664402 62.33255022 26.1015625 60.28515625 C25.86066895 59.05450439 25.61977539 57.82385254 25.37158203 56.5559082 C24.68054076 53.60499278 23.78061904 51.01285469 22.59375 48.234375 C22.31326667 46.92804987 22.06297982 45.61486382 21.84375 44.296875 C18.84041238 30.41221415 11.64711614 16.60442108 -0.46484375 8.73828125 C-6.17332718 5.81960114 -12.26341847 4.01170092 -18.40625 2.234375 C-13.84025049 -2.33162451 -5.8403013 -1.85827769 0 0 Z " fill="#121212" transform="translate(159.40625,75.765625)"/>
<path d="M0 0 C6.75 0.875 6.75 0.875 9 2 C9.76196289 4.63623047 9.76196289 4.63623047 10.47265625 8.1171875 C10.86227539 9.98697266 10.86227539 9.98697266 11.25976562 11.89453125 C11.52770182 13.2212819 11.79527599 14.54810572 12.0625 15.875 C12.59212765 18.4563412 13.1262227 21.03673059 13.66015625 23.6171875 C13.89355713 24.76815918 14.12695801 25.91913086 14.36743164 27.10498047 C14.9563256 30.04635569 14.9563256 30.04635569 16 33 C16.40579751 38.03943886 16.36486077 42.41808226 14 47 C13.34 47 12.68 47 12 47 C8.17305556 36.94765745 5.60895476 26.64752884 3.1875 16.1875 C3.02893524 15.5050824 2.87037048 14.82266479 2.70700073 14.11956787 C0 2.42671408 0 2.42671408 0 0 Z " fill="#0D0D0D" transform="translate(191,164)"/>
<path d="M0 0 C2.97 1.65 5.94 3.3 9 5 C7.94146945 11.12435531 6.8461553 17.06592939 5 23 C2.17536801 20.17536801 2.03757736 16.98379783 1.375 13.1875 C1.2409375 12.47529297 1.106875 11.76308594 0.96875 11.02929688 C0.28206684 7.24202905 0 3.87651978 0 0 Z " fill="#121211" transform="translate(205,168)"/>
<path d="M0 0 C0.33 0 0.66 0 1 0 C2.2982126 5.76081841 3.25706972 11.08739655 3 17 C0.69 17 -1.62 17 -4 17 C-2.07289294 5.47835991 -2.07289294 5.47835991 0 0 Z " fill="#202021" transform="translate(175,140)"/>
<path d="M0 0 C-0.52454579 3.93409344 -2.2047353 5.44483844 -5.25 7.875 C-6.01828125 8.51179687 -6.7865625 9.14859375 -7.578125 9.8046875 C-10 11 -10 11 -12.796875 10.1953125 C-13.52390625 9.80085937 -14.2509375 9.40640625 -15 9 C-13.948125 8.1646875 -13.948125 8.1646875 -12.875 7.3125 C-11.3827591 6.11221927 -9.89411934 4.90440954 -8.47265625 3.62109375 C-4.41826923 0 -4.41826923 0 0 0 Z " fill="#E3E3E3" transform="translate(249,228)"/>
<path d="M0 0 C0.99 0.33 1.98 0.66 3 1 C2.9375 2.75 2.9375 2.75 2 5 C-0.24164322 6.59501537 -2.53566643 7.74543018 -5 9 C-5 8.01 -5 7.02 -5 6 C-5.66 5.67 -6.32 5.34 -7 5 C-5.90554162 4.13342884 -4.79902219 3.28207276 -3.6875 2.4375 C-3.07261719 1.96183594 -2.45773438 1.48617187 -1.82421875 0.99609375 C-1.22222656 0.66738281 -0.62023437 0.33867187 0 0 Z " fill="#DEDEDE" transform="translate(156,215)"/>
</svg>
